<svg xmlns="http://www.w3.org/2000/svg" viewBox="0 0 900 500"><rect width="100%" height="100%" fill="white"/><text x="450" y="32" text-anchor="middle" font-family="Arial" font-size="24" font-weight="700">SiO₂ vs High-K Gate Leakage</text><line x1="90" y1="65" x2="90" y2="410" stroke="#24292f"/><line x1="90" y1="410" x2="865" y2="410" stroke="#24292f"/><line x1="90" y1="381.2" x2="865" y2="381.2" stroke="#d8dee4"/><text x="80" y="386.2" text-anchor="end" font-family="Arial" font-size="14">1e-11</text><line x1="90" y1="285.4" x2="865" y2="285.4" stroke="#d8dee4"/><text x="80" y="290.4" text-anchor="end" font-family="Arial" font-size="14">1e-10</text><line x1="90" y1="189.6" x2="865" y2="189.6" stroke="#d8dee4"/><text x="80" y="194.6" text-anchor="end" font-family="Arial" font-size="14">1e-9</text><line x1="90" y1="93.8" x2="865" y2="93.8" stroke="#d8dee4"/><text x="80" y="98.8" text-anchor="end" font-family="Arial" font-size="14">1e-8</text><rect x="154.6" y="135.1" width="105.9" height="274.9" rx="3" fill="#2f81f7"/><rect x="283.8" y="253.2" width="105.9" height="156.8" rx="3" fill="#f59e0b"/><text x="283.8" y="436" text-anchor="middle" font-family="Arial" font-size="14">Low-Vd</text><rect x="542.1" y="163.1" width="105.9" height="246.9" rx="3" fill="#2f81f7"/><rect x="671.2" y="376" width="105.9" height="34" rx="3" fill="#f59e0b"/><text x="671.2" y="436" text-anchor="middle" font-family="Arial" font-size="14">High-Vd</text><rect x="695" y="50" width="16" height="16" fill="#2f81f7"/><text x="718" y="63" font-family="Arial" font-size="14">SiO₂</text><rect x="695" y="74" width="16" height="16" fill="#f59e0b"/><text x="718" y="87" font-family="Arial" font-size="14">High-K</text><text x="22" y="237.5" transform="rotate(-90 22 237.5)" text-anchor="middle" font-family="Arial" font-size="16">IgTotal_On (A/µm)</text><text x="450" y="482" text-anchor="middle" font-family="Arial" font-size="13" fill="#57606a">High-Vd reduction: approximately 99.40%.</text></svg>