<svg xmlns="http://www.w3.org/2000/svg" width="1100" height="390" viewBox="0 0 1100 390" role="img" aria-label="high-k process"><defs><style>text{font-family:Arial,'Noto Sans KR',sans-serif;fill:#1f2328}.title{font-size:28px;font-weight:700}.h{font-size:20px;font-weight:700}.s{font-size:14px;fill:#57606a}.box{fill:#f6f8fa;stroke:#8c959f;stroke-width:2}.arrow{stroke:#57606a;stroke-width:3;fill:none;marker-end:url(#a)}</style><marker id="a" markerWidth="10" markerHeight="10" refX="9" refY="3" orient="auto"><path d="M0,0 L0,6 L9,3 z" fill="#57606a"/></marker></defs><text x="550" y="45" text-anchor="middle" class="title">High-K Gate-Stack Integration Flow</text><rect x="45" y="120" width="200" height="150" rx="14" class="box"/><rect x="315" y="120" width="200" height="150" rx="14" class="box"/><rect x="585" y="120" width="200" height="150" rx="14" class="box"/><rect x="855" y="120" width="200" height="150" rx="14" class="box"/><text x="145" y="165" text-anchor="middle" class="h">1. Si Surface</text><text x="145" y="210" text-anchor="middle" class="s">Test vehicle</text><text x="415" y="165" text-anchor="middle" class="h">2. SiO₂ IL</text><text x="415" y="210" text-anchor="middle" class="s">0.5 nm</text><text x="685" y="165" text-anchor="middle" class="h">3. HfO₂</text><text x="685" y="210" text-anchor="middle" class="s">5.64 nm</text><text x="955" y="165" text-anchor="middle" class="h">4. DMG</text><text x="955" y="210" text-anchor="middle" class="s">GateS / GateD</text><path d="M245 195 L310 195" class="arrow"/><path d="M515 195 L580 195" class="arrow"/><path d="M785 195 L850 195" class="arrow"/><text x="550" y="340" text-anchor="middle" class="h">EOT is preserved while the tunneling distance increases</text></svg>