<svg xmlns="http://www.w3.org/2000/svg" width="1100" height="430" viewBox="0 0 1100 430" role="img" aria-label="future roadmap"><defs><style>text{font-family:Arial,'Noto Sans KR',sans-serif;fill:#1f2328}.title{font-size:28px;font-weight:700}.h{font-size:20px;font-weight:700}.t{font-size:16px}.s{font-size:14px;fill:#57606a}.box{fill:#f6f8fa;stroke:#8c959f;stroke-width:2}.arrow{stroke:#57606a;stroke-width:3;fill:none;marker-end:url(#a)}</style><marker id="a" markerWidth="10" markerHeight="10" refX="9" refY="3" orient="auto"><path d="M0,0 L0,6 L9,3 z" fill="#57606a"/></marker></defs><text x="550" y="45" text-anchor="middle" class="title">Future Research Roadmap</text><rect x="35" y="120" width="225" height="170" rx="16" class="box"/><rect x="305" y="120" width="225" height="170" rx="16" class="box"/><rect x="575" y="120" width="225" height="170" rx="16" class="box"/><rect x="845" y="120" width="225" height="170" rx="16" class="box"/><text x="147" y="165" text-anchor="middle" class="h">2D Concept Study</text><text x="147" y="205" text-anchor="middle" class="t">Barrier · Ioff · Ig</text><text x="147" y="235" text-anchor="middle" class="s">Current portfolio</text><text x="417" y="165" text-anchor="middle" class="h">3D GAA TCAD</text><text x="417" y="205" text-anchor="middle" class="t">Potential profile</text><text x="417" y="235" text-anchor="middle" class="s">Quantum / interface</text><text x="687" y="165" text-anchor="middle" class="h">Process Feasibility</text><text x="687" y="205" text-anchor="middle" class="t">Selective WFM</text><text x="687" y="235" text-anchor="middle" class="s">Alignment / variability</text><text x="957" y="165" text-anchor="middle" class="h">CFET / Multi-Vt</text><text x="957" y="205" text-anchor="middle" class="t">Logic-level benefit</text><text x="957" y="235" text-anchor="middle" class="s">Gain / margin / leakage</text><path d="M260 205 L300 205" class="arrow"/><path d="M530 205 L570 205" class="arrow"/><path d="M800 205 L840 205" class="arrow"/><text x="550" y="365" text-anchor="middle" class="h">Physical direction → 3D validation → process integration → circuit relevance</text></svg>