<svg xmlns="http://www.w3.org/2000/svg" viewBox="0 0 900 500"><rect width="100%" height="100%" fill="white"/><text x="450.0" y="32" text-anchor="middle" font-family="Arial" font-size="24" font-weight="700">Ioff Baseline Comparison</text><line x1="90" y1="65" x2="90" y2="410" stroke="#24292f"/><line x1="90" y1="410" x2="865" y2="410" stroke="#24292f"/><line x1="90" y1="399.2" x2="865" y2="399.2" stroke="#d8dee4"/><text x="80" y="404.2" text-anchor="end" font-family="Arial" font-size="14">1e-16</text><line x1="90" y1="363.3" x2="865" y2="363.3" stroke="#d8dee4"/><text x="80" y="368.3" text-anchor="end" font-family="Arial" font-size="14">1e-15</text><line x1="90" y1="327.3" x2="865" y2="327.3" stroke="#d8dee4"/><text x="80" y="332.3" text-anchor="end" font-family="Arial" font-size="14">1e-14</text><line x1="90" y1="291.4" x2="865" y2="291.4" stroke="#d8dee4"/><text x="80" y="296.4" text-anchor="end" font-family="Arial" font-size="14">1e-13</text><line x1="90" y1="255.5" x2="865" y2="255.5" stroke="#d8dee4"/><text x="80" y="260.5" text-anchor="end" font-family="Arial" font-size="14">1e-12</text><line x1="90" y1="219.5" x2="865" y2="219.5" stroke="#d8dee4"/><text x="80" y="224.5" text-anchor="end" font-family="Arial" font-size="14">1e-11</text><line x1="90" y1="183.6" x2="865" y2="183.6" stroke="#d8dee4"/><text x="80" y="188.6" text-anchor="end" font-family="Arial" font-size="14">1e-10</text><line x1="90" y1="147.7" x2="865" y2="147.7" stroke="#d8dee4"/><text x="80" y="152.7" text-anchor="end" font-family="Arial" font-size="14">1e-9</text><line x1="90" y1="111.7" x2="865" y2="111.7" stroke="#d8dee4"/><text x="80" y="116.7" text-anchor="end" font-family="Arial" font-size="14">1e-8</text><line x1="90" y1="75.8" x2="865" y2="75.8" stroke="#d8dee4"/><text x="80" y="80.8" text-anchor="end" font-family="Arial" font-size="14">1e-7</text><rect x="133.1" y="136.7" width="70.6" height="273.3" rx="3" fill="#2f81f7"/><rect x="219.2" y="397.0" width="70.6" height="13.0" rx="3" fill="#f59e0b"/><text x="219.2" y="436" text-anchor="middle" font-family="Arial" font-size="14">0.25 µm</text><rect x="391.4" y="103.5" width="70.6" height="306.5" rx="3" fill="#2f81f7"/><rect x="477.5" y="351.3" width="70.6" height="58.7" rx="3" fill="#f59e0b"/><text x="477.5" y="436" text-anchor="middle" font-family="Arial" font-size="14">0.10 µm</text><rect x="649.7" y="211.2" width="70.6" height="198.8" rx="3" fill="#2f81f7"/><rect x="735.8" y="393.0" width="70.6" height="17.0" rx="3" fill="#f59e0b"/><text x="735.8" y="436" text-anchor="middle" font-family="Arial" font-size="14">0.028 µm</text><rect x="695" y="50" width="16" height="16" fill="#2f81f7"/><text x="718" y="63" font-family="Arial" font-size="14">Single</text><rect x="695" y="74" width="16" height="16" fill="#f59e0b"/><text x="718" y="87" font-family="Arial" font-size="14">Dual</text><text x="22" y="237.5" transform="rotate(-90 22 237.5)" text-anchor="middle" font-family="Arial" font-size="16">Ioff (A/µm)</text></svg>