<svg xmlns="http://www.w3.org/2000/svg" viewBox="0 0 900 500"><rect width="100%" height="100%" fill="white"/><text x="450.0" y="32" text-anchor="middle" font-family="Arial" font-size="24" font-weight="700">DIBL Baseline Comparison</text><line x1="90" y1="65" x2="90" y2="410" stroke="#24292f"/><line x1="90" y1="410" x2="865" y2="410" stroke="#24292f"/><line x1="90" y1="410.0" x2="865" y2="410.0" stroke="#d8dee4"/><text x="80" y="415.0" text-anchor="end" font-family="Arial" font-size="14">0</text><line x1="90" y1="341.0" x2="865" y2="341.0" stroke="#d8dee4"/><text x="80" y="346.0" text-anchor="end" font-family="Arial" font-size="14">92</text><line x1="90" y1="272.0" x2="865" y2="272.0" stroke="#d8dee4"/><text x="80" y="277.0" text-anchor="end" font-family="Arial" font-size="14">1.8e+02</text><line x1="90" y1="203.0" x2="865" y2="203.0" stroke="#d8dee4"/><text x="80" y="208.0" text-anchor="end" font-family="Arial" font-size="14">2.8e+02</text><line x1="90" y1="134.0" x2="865" y2="134.0" stroke="#d8dee4"/><text x="80" y="139.0" text-anchor="end" font-family="Arial" font-size="14">3.7e+02</text><line x1="90" y1="65.0" x2="865" y2="65.0" stroke="#d8dee4"/><text x="80" y="70.0" text-anchor="end" font-family="Arial" font-size="14">4.6e+02</text><rect x="133.1" y="110.0" width="70.6" height="300.0" rx="3" fill="#2f81f7"/><rect x="219.2" y="164.2" width="70.6" height="245.8" rx="3" fill="#f59e0b"/><text x="219.2" y="436" text-anchor="middle" font-family="Arial" font-size="14">0.25 µm</text><rect x="391.4" y="242.0" width="70.6" height="168.0" rx="3" fill="#2f81f7"/><rect x="477.5" y="255.6" width="70.6" height="154.4" rx="3" fill="#f59e0b"/><text x="477.5" y="436" text-anchor="middle" font-family="Arial" font-size="14">0.10 µm</text><rect x="649.7" y="204.6" width="70.6" height="205.4" rx="3" fill="#2f81f7"/><rect x="735.8" y="389.0" width="70.6" height="21.0" rx="3" fill="#f59e0b"/><text x="735.8" y="436" text-anchor="middle" font-family="Arial" font-size="14">0.028 µm</text><rect x="695" y="50" width="16" height="16" fill="#2f81f7"/><text x="718" y="63" font-family="Arial" font-size="14">Single</text><rect x="695" y="74" width="16" height="16" fill="#f59e0b"/><text x="718" y="87" font-family="Arial" font-size="14">Dual</text><text x="22" y="237.5" transform="rotate(-90 22 237.5)" text-anchor="middle" font-family="Arial" font-size="16">DIBL (mV/V)</text><text x="450.0" y="482" text-anchor="middle" font-family="Arial" font-size="13" fill="#57606a">0.028 µm Dual DIBL is extraction-sensitive.</text></svg>