<svg xmlns="http://www.w3.org/2000/svg" viewBox="0 0 900 500"><rect width="100%" height="100%" fill="white"/><text x="450.0" y="32" text-anchor="middle" font-family="Arial" font-size="24" font-weight="700">Thin-SiO₂ Gate Leakage at Lg = 0.028 µm</text><line x1="90" y1="65" x2="90" y2="410" stroke="#24292f"/><line x1="90" y1="410" x2="865" y2="410" stroke="#24292f"/><line x1="90" y1="345.3" x2="865" y2="345.3" stroke="#d8dee4"/><text x="80" y="350.3" text-anchor="end" font-family="Arial" font-size="14">1e-9</text><line x1="90" y1="129.7" x2="865" y2="129.7" stroke="#d8dee4"/><text x="80" y="134.7" text-anchor="end" font-family="Arial" font-size="14">1e-8</text><rect x="154.6" y="179.1" width="105.9" height="230.9" rx="3" fill="#2f81f7"/><rect x="283.8" y="249.4" width="105.9" height="160.6" rx="3" fill="#f59e0b"/><text x="283.8" y="436" text-anchor="middle" font-family="Arial" font-size="14">Single</text><rect x="542.1" y="222.7" width="105.9" height="187.3" rx="3" fill="#2f81f7"/><rect x="671.2" y="285.7" width="105.9" height="124.3" rx="3" fill="#f59e0b"/><text x="671.2" y="436" text-anchor="middle" font-family="Arial" font-size="14">Dual</text><rect x="695" y="50" width="16" height="16" fill="#2f81f7"/><text x="718" y="63" font-family="Arial" font-size="14">Low-Vd Ig</text><rect x="695" y="74" width="16" height="16" fill="#f59e0b"/><text x="718" y="87" font-family="Arial" font-size="14">High-Vd Ig</text><text x="22" y="237.5" transform="rotate(-90 22 237.5)" text-anchor="middle" font-family="Arial" font-size="16">IgTotal_On (A/µm)</text><text x="450.0" y="482" text-anchor="middle" font-family="Arial" font-size="13" fill="#57606a">DMG reduces drain Ioff strongly, while on-state gate tunneling remains.</text></svg>