<svg xmlns="http://www.w3.org/2000/svg" width="1200" height="550" viewBox="0 0 1200 550" role="img" aria-label="simplified process flow"><defs><style>text{font-family:Arial,'Noto Sans KR',sans-serif;fill:#1f2328}.title{font-size:28px;font-weight:700}.h{font-size:20px;font-weight:700}.s{font-size:14px;fill:#57606a}.box{fill:#f6f8fa;stroke:#8c959f;stroke-width:2}</style></defs><text x="600" y="42" text-anchor="middle" class="title">Simplified DMG Process Flow</text><rect x="35" y="90" width="200" height="170" rx="12" class="box"/><text x="55" y="120" class="h">1</text><rect x="65" y="195" width="140" height="30" fill="#dbeafe"/><text x="135" y="245" text-anchor="middle" class="s">Initialize</text><rect x="265" y="90" width="200" height="170" rx="12" class="box"/><text x="285" y="120" class="h">2</text><rect x="295" y="195" width="140" height="30" fill="#dbeafe"/><text x="365" y="245" text-anchor="middle" class="s">Gate stack</text><rect x="495" y="90" width="200" height="170" rx="12" class="box"/><text x="515" y="120" class="h">3</text><rect x="525" y="195" width="140" height="30" fill="#dbeafe"/><rect x="565" y="160" width="30" height="35" fill="#ffb000"/><rect x="595" y="160" width="30" height="35" fill="#00a6e8"/><text x="595" y="245" text-anchor="middle" class="s">GateS</text><rect x="725" y="90" width="200" height="170" rx="12" class="box"/><text x="745" y="120" class="h">4</text><rect x="755" y="195" width="140" height="30" fill="#dbeafe"/><rect x="795" y="160" width="30" height="35" fill="#ffb000"/><rect x="825" y="160" width="30" height="35" fill="#00a6e8"/><text x="825" y="245" text-anchor="middle" class="s">GateD</text><rect x="955" y="90" width="200" height="170" rx="12" class="box"/><text x="975" y="120" class="h">5</text><rect x="985" y="195" width="140" height="30" fill="#dbeafe"/><rect x="1025" y="160" width="30" height="35" fill="#ffb000"/><rect x="1055" y="160" width="30" height="35" fill="#00a6e8"/><text x="1055" y="245" text-anchor="middle" class="s">Cap</text><rect x="35" y="310" width="200" height="170" rx="12" class="box"/><text x="55" y="340" class="h">6</text><rect x="65" y="415" width="140" height="30" fill="#dbeafe"/><rect x="105" y="380" width="30" height="35" fill="#ffb000"/><rect x="135" y="380" width="30" height="35" fill="#00a6e8"/><text x="135" y="465" text-anchor="middle" class="s">LDD</text><rect x="265" y="310" width="200" height="170" rx="12" class="box"/><text x="285" y="340" class="h">7</text><rect x="295" y="415" width="140" height="30" fill="#dbeafe"/><rect x="335" y="380" width="30" height="35" fill="#ffb000"/><rect x="365" y="380" width="30" height="35" fill="#00a6e8"/><path d="M320 415 Q320 385 335 385" fill="none" stroke="#9a6700" stroke-width="8"/><path d="M410 415 Q410 385 395 385" fill="none" stroke="#9a6700" stroke-width="8"/><text x="365" y="465" text-anchor="middle" class="s">Spacer</text><rect x="495" y="310" width="200" height="170" rx="12" class="box"/><text x="515" y="340" class="h">8</text><rect x="525" y="415" width="140" height="30" fill="#dbeafe"/><rect x="565" y="380" width="30" height="35" fill="#ffb000"/><rect x="595" y="380" width="30" height="35" fill="#00a6e8"/><path d="M550 415 Q550 385 565 385" fill="none" stroke="#9a6700" stroke-width="8"/><path d="M640 415 Q640 385 625 385" fill="none" stroke="#9a6700" stroke-width="8"/><text x="595" y="465" text-anchor="middle" class="s">S/D</text><rect x="725" y="310" width="200" height="170" rx="12" class="box"/><text x="745" y="340" class="h">9</text><rect x="755" y="415" width="140" height="30" fill="#dbeafe"/><rect x="795" y="380" width="30" height="35" fill="#ffb000"/><rect x="825" y="380" width="30" height="35" fill="#00a6e8"/><path d="M780 415 Q780 385 795 385" fill="none" stroke="#9a6700" stroke-width="8"/><path d="M870 415 Q870 385 855 385" fill="none" stroke="#9a6700" stroke-width="8"/><text x="825" y="465" text-anchor="middle" class="s">Anneal</text><rect x="955" y="310" width="200" height="170" rx="12" class="box"/><text x="975" y="340" class="h">10</text><rect x="985" y="415" width="140" height="30" fill="#dbeafe"/><rect x="1025" y="380" width="30" height="35" fill="#ffb000"/><rect x="1055" y="380" width="30" height="35" fill="#00a6e8"/><path d="M1010 415 Q1010 385 1025 385" fill="none" stroke="#9a6700" stroke-width="8"/><path d="M1100 415 Q1100 385 1085 385" fill="none" stroke="#9a6700" stroke-width="8"/><text x="1055" y="465" text-anchor="middle" class="s">Contacts</text></svg>