<svg xmlns="http://www.w3.org/2000/svg" width="1000" height="520" viewBox="0 0 1000 520" role="img" aria-label="DMG work-function split">
<defs><style>
text{font-family:Arial,'Noto Sans KR',sans-serif;fill:#1f2328} .title{font-size:28px;font-weight:700} .h{font-size:20px;font-weight:700} .t{font-size:16px} .s{font-size:14px;fill:#57606a} .box{fill:#f6f8fa;stroke:#8c959f;stroke-width:2} .arrow{stroke:#57606a;stroke-width:3;fill:none;marker-end:url(#a)}
</style><marker id="a" markerWidth="10" markerHeight="10" refX="9" refY="3" orient="auto"><path d="M0,0 L0,6 L9,3 z" fill="#57606a"/></marker></defs>
<rect x="80" y="330" width="840" height="100" rx="12" fill="#dbeafe" stroke="#0969da" stroke-width="3"/>
<rect x="80" y="430" width="840" height="45" fill="#eaeef2"/>
<rect x="180" y="285" width="160" height="45" rx="6" fill="#fda44a" stroke="#9a6700" stroke-width="2"/><rect x="660" y="285" width="160" height="45" rx="6" fill="#7dd3fc" stroke="#0969da" stroke-width="2"/>
<rect x="375" y="235" width="125" height="95" fill="#ffb000" stroke="#7a4e00" stroke-width="3"/><rect x="500" y="235" width="125" height="95" fill="#00a6e8" stroke="#0550ae" stroke-width="3"/>
<text x="500" y="55" text-anchor="middle" class="title">Source–Drain Work-Function Split</text>
<text x="437" y="275" text-anchor="middle" class="h">GateS</text><text x="562" y="275" text-anchor="middle" class="h">GateD</text>
<text x="437" y="305" text-anchor="middle" class="t">4.2 eV</text><text x="562" y="305" text-anchor="middle" class="t">4.8 eV</text>
<text x="260" y="312" text-anchor="middle" class="h">Source</text><text x="740" y="312" text-anchor="middle" class="h">Drain</text>
<path d="M420 190 C330 150,280 170,230 230" class="arrow"/><text x="300" y="125" text-anchor="middle" class="h">Injection 유지</text><text x="300" y="150" text-anchor="middle" class="s">Ion 손실 제한</text>
<path d="M580 190 C680 150,730 170,780 230" class="arrow"/><text x="700" y="125" text-anchor="middle" class="h">Drain field 억제</text><text x="700" y="150" text-anchor="middle" class="s">Ioff · DIBL 감소 방향</text>
<text x="500" y="385" text-anchor="middle" class="h">Channel</text><text x="500" y="458" text-anchor="middle" class="s">2D planar nMOS test vehicle</text>
</svg>