<svg xmlns="http://www.w3.org/2000/svg" width="1100" height="420" viewBox="0 0 1100 420" role="img" aria-label="technology context"><defs><style>text{font-family:Arial,'Noto Sans KR',sans-serif;fill:#1f2328}.title{font-size:28px;font-weight:700}.h{font-size:20px;font-weight:700}.t{font-size:16px}.s{font-size:14px;fill:#57606a}.box{fill:#f6f8fa;stroke:#8c959f;stroke-width:2}.arrow{stroke:#57606a;stroke-width:3;fill:none;marker-end:url(#a)}</style><marker id="a" markerWidth="10" markerHeight="10" refX="9" refY="3" orient="auto"><path d="M0,0 L0,6 L9,3 z" fill="#57606a"/></marker></defs><text x="550" y="42" text-anchor="middle" class="title">Technology Context and Research Position</text><rect x="45" y="105" width="210" height="120" rx="14" class="box"/><rect x="320" y="105" width="210" height="120" rx="14" class="box"/><rect x="595" y="105" width="210" height="120" rx="14" class="box"/><rect x="870" y="105" width="185" height="120" rx="14" class="box"/><text x="150" y="155" text-anchor="middle" class="h">Planar MOSFET</text><text x="150" y="188" text-anchor="middle" class="s">SCE 증가</text><text x="425" y="155" text-anchor="middle" class="h">FinFET / GAA</text><text x="425" y="188" text-anchor="middle" class="s">Electrostatic control</text><text x="700" y="155" text-anchor="middle" class="h">Nanosheet / CFET</text><text x="700" y="188" text-anchor="middle" class="s">Multi-Vt · WFM</text><text x="962" y="155" text-anchor="middle" class="h">Future Study</text><text x="962" y="188" text-anchor="middle" class="s">3D + process validation</text><path d="M255 165 L315 165" class="arrow"/><path d="M530 165 L590 165" class="arrow"/><path d="M805 165 L865 165" class="arrow"/><rect x="245" y="285" width="610" height="80" rx="14" fill="#f3faf7" stroke="#1a7f37" stroke-width="3"/><text x="550" y="318" text-anchor="middle" class="h">This Project: 2D test vehicle</text><text x="550" y="345" text-anchor="middle" class="t">Work-Function Split의 물리 방향성과 한계를 분리 검증</text></svg>