<svg xmlns="http://www.w3.org/2000/svg" width="1150" height="430" viewBox="0 0 1150 430" role="img" aria-label="DIBL reliability"><defs><style>text{font-family:Arial,'Noto Sans KR',sans-serif;fill:#1f2328}.title{font-size:28px;font-weight:700}.h{font-size:20px;font-weight:700}.s{font-size:14px;fill:#57606a}.box{fill:#f6f8fa;stroke:#8c959f;stroke-width:2}.arrow{stroke:#57606a;stroke-width:3;fill:none;marker-end:url(#a)}</style><marker id="a" markerWidth="10" markerHeight="10" refX="9" refY="3" orient="auto"><path d="M0,0 L0,6 L9,3 z" fill="#57606a"/></marker></defs><text x="575" y="45" text-anchor="middle" class="title">DIBL Reliability Improvement</text><rect x="30" y="125" width="200" height="150" rx="14" class="box"/><rect x="260" y="125" width="200" height="150" rx="14" class="box"/><rect x="490" y="125" width="200" height="150" rx="14" class="box"/><rect x="720" y="125" width="200" height="150" rx="14" class="box"/><rect x="950" y="125" width="170" height="150" rx="14" class="box"/><text x="130" y="170" text-anchor="middle" class="h">Outlier Found</text><text x="130" y="210" text-anchor="middle" class="s">Vtgm High &gt; Low</text><text x="360" y="170" text-anchor="middle" class="h">Method Check</text><text x="360" y="210" text-anchor="middle" class="s">gm peak sensitivity</text><text x="590" y="170" text-anchor="middle" class="h">Vd/2 Correction</text><text x="590" y="210" text-anchor="middle" class="s">corrected Vtgm</text><text x="820" y="170" text-anchor="middle" class="h">CC Threshold</text><text x="820" y="210" text-anchor="middle" class="s">1e-7 / 1e-8 A/µm</text><text x="1035" y="170" text-anchor="middle" class="h">Multi-Metric</text><text x="1035" y="210" text-anchor="middle" class="s">SS · Ion · Ioff · Ig</text><path d="M230 200 L255 200" class="arrow"/><path d="M460 200 L485 200" class="arrow"/><path d="M690 200 L715 200" class="arrow"/><path d="M920 200 L945 200" class="arrow"/><text x="575" y="350" text-anchor="middle" class="h">Conclusion scope: repeated physical trends, not a single extreme DIBL value</text></svg>