<svg xmlns="http://www.w3.org/2000/svg" width="1150" height="430" viewBox="0 0 1150 430" role="img" aria-label="project evolution"><defs><style>text{font-family:Arial,'Noto Sans KR',sans-serif;fill:#1f2328}.title{font-size:28px;font-weight:700}.h{font-size:20px;font-weight:700}.s{font-size:14px;fill:#57606a}.box{fill:#f6f8fa;stroke:#8c959f;stroke-width:2}</style></defs><text x="575" y="45" text-anchor="middle" class="title">Project Evolution</text><line x1="90" y1="220" x2="1060" y2="220" stroke="#8c959f" stroke-width="5"/><circle cx="120" cy="220" r="18" fill="#0969da"/><rect x="20" y="90" width="200" height="90" rx="12" class="box"/><text x="120" y="125" text-anchor="middle" class="h">Coursework</text><text x="120" y="152" text-anchor="middle" class="s">Initial DMG code</text><circle cx="350" cy="220" r="18" fill="#0969da"/><rect x="250" y="260" width="200" height="90" rx="12" class="box"/><text x="350" y="295" text-anchor="middle" class="h">Scaling</text><text x="350" y="322" text-anchor="middle" class="s">3 gate lengths</text><circle cx="575" cy="220" r="18" fill="#0969da"/><rect x="475" y="90" width="200" height="90" rx="12" class="box"/><text x="575" y="125" text-anchor="middle" class="h">Reliability</text><text x="575" y="152" text-anchor="middle" class="s">DIBL extraction</text><circle cx="800" cy="220" r="18" fill="#0969da"/><rect x="700" y="260" width="200" height="90" rx="12" class="box"/><text x="800" y="295" text-anchor="middle" class="h">High-K</text><text x="800" y="322" text-anchor="middle" class="s">Gate leakage</text><circle cx="1030" cy="220" r="18" fill="#0969da"/><rect x="930" y="90" width="200" height="90" rx="12" class="box"/><text x="1030" y="125" text-anchor="middle" class="h">Conference</text><text x="1030" y="152" text-anchor="middle" class="s">GAA/CFET framing</text></svg>